<?xml version="1.0" encoding="utf-8"?>
<!-- Generator: Adobe Illustrator 22.1.0, SVG Export Plug-In . SVG Version: 6.00 Build 0)  -->
<svg version="1.1" id="Layer_1" xmlns="http://www.w3.org/2000/svg" xmlns:xlink="http://www.w3.org/1999/xlink" x="0px" y="0px"
	 viewBox="0 0 1571.6 1000" style="enable-background:new 0 0 1571.6 1000;" xml:space="preserve">
<style type="text/css">
	.st0{fill:#FFFFFF;}
	.st1{fill:#066DBA;}
	.st2{fill:#00AEEF;}
	.st3{fill:#EAB01F;}
	.st4{opacity:0.19;fill:#FFFFFF;enable-background:new    ;}
	.st5{fill:#231F20;}
	.st6{fill:none;}
	.st7{opacity:0.2;}
	.st8{clip-path:url(#SVGID_2_);}
</style>
<polygon class="st0" points="437.1,352.7 411.8,352.7 411.8,179.5 164.4,179.5 164.4,205.2 139.1,205.2 139.1,154.3 437.1,154.3 "/>
<polygon class="st0" points="437.1,456.4 139.1,456.4 139.1,261.6 164.4,261.6 164.4,431.2 411.8,431.2 411.8,409.7 437.1,409.7 "/>
<rect x="275.4" y="166.9" class="st0" width="25.2" height="242.8"/>
<path class="st0" d="M368.9,166.9h-25.2v-32c0-31.8-25.9-57.7-57.7-57.7s-57.7,25.9-57.7,57.7h-25.2c0-45.7,37.2-82.9,82.9-82.9
	s82.9,37.2,82.9,82.9V166.9z"/>
<polygon class="st0" points="181.5,273 123.9,273 152.7,230.1 "/>
<polygon class="st0" points="452.5,412.3 394.8,412.3 423.7,369.5 "/>
<g>
	<path class="st0" d="M573.6,225.2v40.2h31.3v32.1h-31.3v50.8c0,16.9,4,24.7,17.2,24.7c5.5,0,9.8-0.6,12.9-1.2l0.3,33
		c-5.7,2.3-16.1,3.7-28.4,3.7c-14.1,0-25.8-4.9-32.7-12.1c-8-8.3-12.1-21.8-12.1-41.6v-57.4h-18.6v-32.1h18.7v-30.4L573.6,225.2z"/>
	<path class="st0" d="M662.8,335.4c0,24.1,10,42.2,28.7,42.2c16.9,0,27.8-16.9,27.8-42.2c0-21-8-42.2-27.8-42.2
		C670.5,293.2,662.8,314.8,662.8,335.4 M764.4,334c0,51.4-36.5,74.9-74.1,74.9c-41,0-72.6-27-72.6-72.3c0-45.4,29.9-74.4,74.9-74.4
		C735.7,262.2,764.4,291.8,764.4,334"/>
	<path class="st0" d="M831.2,324.5h0.6c3.2-5.7,6.6-11.5,10-16.9l28.4-42.2h52.5l-50.2,56.8l57.4,83.5h-53.6L842.4,348l-11.2,13.8
		v43.9h-43.6V201.9h43.6V324.5z"/>
	<path class="st0" d="M972,335.4c0,24.1,10,42.2,28.7,42.2c16.9,0,27.8-16.9,27.8-42.2c0-21-8-42.2-27.8-42.2
		C979.8,293.2,972,314.8,972,335.4 M1073.7,334c0,51.4-36.5,74.9-74.1,74.9c-41,0-72.6-27-72.6-72.3c0-45.4,29.9-74.4,74.9-74.4
		C1044.9,262.2,1073.7,291.8,1073.7,334"/>
	<rect x="1097.2" y="201.9" class="st0" width="43.6" height="203.8"/>
	<rect x="1171.5" y="265.4" class="st0" width="43.6" height="140.4"/>
	<path class="st0" d="M1270.2,212.8c-12.6,11.5-17.8,30.1-17.8,47.1v5.5H1234v32.1h18.4v108.2h43.9V297.5h27.9v-32.1h-28.1v-7.2
		c0-13.8,6-25,20.4-25c5.7,0,10.3,0.9,14.1,2l1.7-33.5c-6-1.7-13.5-2.9-23.3-2.9C1296.4,198.8,1281.2,202.5,1270.2,212.8"/>
	<path class="st0" d="M1427.3,297.5v-32.2H1396v-40.2l-42.8,9.8v30.4h-18.7v32.2h18.7v57.4c0,19.8,4,33.3,12.1,41.6
		c6.9,7.2,18.7,12.1,32.7,12.1c12.3,0,22.7-1.4,28.4-3.7l-0.3-33c-3.2,0.6-7.5,1.1-12.9,1.1c-13.2,0-17.2-7.7-17.2-24.7v-50.8
		L1427.3,297.5L1427.3,297.5z"/>
	<polygon class="st0" points="1215.7,253.6 1171,253.6 1193.4,220.3 	"/>
</g>
<rect x="164.1" y="168.8" class="st0" width="52.3" height="6.4"/>
<rect x="379" y="436.6" class="st0" width="32.7" height="6.4"/>
<g>
	<rect x="147.8" y="650.4" class="st1" width="275" height="275"/>
	<path class="st2" d="M147.8,650.4v275h275v-275H147.8z M398.5,901H172.1V674.7h226.3V901z"/>
	<rect x="122.5" y="790.4" class="st3" width="12.1" height="156.1"/>
	<rect x="437" y="630" class="st3" width="12.1" height="156.1"/>
	<rect x="419" y="624.4" class="st3" width="30" height="11.7"/>
	<rect x="122.5" y="941.7" class="st3" width="30" height="11.7"/>
	<path class="st4" d="M148.2,825.3c0,0,176.5-4.7,275-184.9h-275V825.3z"/>
	<rect x="262.5" y="661" class="st3" width="11.7" height="147.5"/>
	<rect x="262.5" y="818.1" class="st3" width="11.7" height="30"/>
	<g>
		<path class="st3" d="M382.6,648.2H357v-32.4c0-32.3-26.3-58.5-58.5-58.5c-32.3,0-58.5,26.3-58.5,58.5h-25.6
			c0-46.4,37.7-84.1,84.1-84.1s84.1,37.7,84.1,84.1v32.4H382.6z"/>
	</g>
	<g>
		<polygon class="st5" points="436.8,836.7 411.3,836.7 411.3,661 160.3,661 160.3,687 134.7,687 134.7,635.4 436.8,635.4 		"/>
	</g>
	<g>
		<polygon class="st5" points="436.8,941.9 134.7,941.9 134.7,744.2 160.3,744.2 160.3,916.2 411.3,916.2 411.3,894.4 436.8,894.4 
					"/>
	</g>
	<g>
		<rect x="272.9" y="648.2" class="st5" width="25.6" height="246.3"/>
	</g>
	<g>
		<path class="st5" d="M367.7,648.2h-25.6v-32.4c0-32.3-26.3-58.5-58.5-58.5s-58.5,26.3-58.5,58.5h-25.6c0-46.4,37.7-84.1,84.1-84.1
			s84.1,37.7,84.1,84.1v32.4H367.7z"/>
	</g>
	<g>
		<path class="st5" d="M177.7,755.8h-58.5l29.3-43.4L177.7,755.8z"/>
	</g>
	<g>
		<path class="st5" d="M452.5,897.1h-58.5l29.3-43.4L452.5,897.1z"/>
	</g>
	<rect x="160" y="650.1" class="st0" width="53.1" height="6.5"/>
	<rect x="378" y="921.8" class="st0" width="33.2" height="6.5"/>
</g>
<g>
	<g>
		<path class="st6" d="M706.2,778.7c-20.8,0-28.5,21.4-28.5,41.8c0,23.9,9.9,41.8,28.5,41.8c16.8,0,27.6-16.8,27.6-41.8
			C733.9,799.8,725.9,778.7,706.2,778.7z"/>
		<path class="st6" d="M1012.8,778.7c-20.8,0-28.5,21.4-28.5,41.8c0,23.9,9.9,41.8,28.5,41.8c16.8,0,27.6-16.8,27.6-41.8
			C1040.5,799.8,1032.4,778.7,1012.8,778.7z"/>
		<path class="st5" d="M589.4,711.3L547,721v30.2h-18.5V783H547v56.9c0,19.6,4,33,12,41.3c6.8,7.2,18.5,12,32.5,12
			c12.2,0,22.5-1.4,28.2-3.7l-0.3-32.7c-3.1,0.6-7.4,1.1-12.8,1.1c-13.1,0-17.1-7.7-17.1-24.4V783h31v-31.9h-31v-39.8H589.4z"/>
		<path class="st5" d="M707.5,748c-44.7,0-74.3,28.7-74.3,73.7s31.3,71.8,72,71.8c37.3,0,73.4-23.3,73.4-74.3
			C778.5,777.3,750,748,707.5,748z M706.2,862.4c-18.5,0-28.5-17.9-28.5-41.8c0-20.5,7.7-41.8,28.5-41.8c19.6,0,27.6,21,27.6,41.8
			C733.9,845.6,723.1,862.4,706.2,862.4z"/>
		<path class="st5" d="M935.6,751.1h-52.1l-28.2,41.8c-3.4,5.4-6.8,11.1-9.9,16.8h-0.6V688.3h-43.4v202.1h43.3v-43.6l11.1-13.6
			l33.6,57.2h53.3l-56.9-82.8L935.6,751.1z"/>
		<path class="st5" d="M1013.9,748c-44.7,0-74.3,28.7-74.3,73.7s31.3,71.8,72,71.8c37.3,0,73.4-23.3,73.4-74.3
			C1085.2,777.3,1056.7,748,1013.9,748z M1012.8,862.4c-18.5,0-28.5-17.9-28.5-41.8c0-20.5,7.7-41.8,28.5-41.8
			c19.6,0,27.6,21,27.6,41.8C1040.5,845.6,1029.6,862.4,1012.8,862.4z"/>
		<rect x="1108.4" y="688.3" class="st1" width="43.3" height="202.1"/>
		<rect x="1182.1" y="751.1" class="st1" width="43.3" height="139.1"/>
		<path class="st1" d="M1279.9,699.1c-12.5,11.3-17.6,29.9-17.6,46.7v5.4h-18.2V783h18.2v107.3h43.6V783h27.6v-31.9h-28V744
			c0-13.6,5.9-24.8,20.2-24.8c5.7,0,10.2,0.9,14,2l1.8-33.3c-5.9-1.8-13.4-2.9-23-2.9C1305.9,685.1,1290.8,688.8,1279.9,699.1z"/>
		<path class="st1" d="M1435.7,783v-31.9h-31v-39.8l-42.4,9.7v30.2h-18.5V783h18.5v56.9c0,19.6,4,33,12,41.3
			c6.8,7.2,18.5,12,32.5,12c12.2,0,22.5-1.4,28.2-3.7l-0.3-32.7c-3.1,0.6-7.4,1.1-12.8,1.1c-13.1,0-17.1-7.7-17.1-24.4V783H1435.7z"
			/>
	</g>
	<polygon class="st3" points="1181.6,739.4 1225.9,739.4 1203.8,706.4 	"/>
	<g class="st7">
		<g>
			<defs>
				<path id="SVGID_1_" d="M471.7,675.2h1047.1c0,0-159.7,175.2-514.7,175.2S471.7,675.2,471.7,675.2z"/>
			</defs>
			<clipPath id="SVGID_2_">
				<use xlink:href="#SVGID_1_"  style="overflow:visible;"/>
			</clipPath>
			<g class="st8">
				<path class="st0" d="M706.2,778.7c-20.8,0-28.5,21.4-28.5,41.8c0,23.9,9.9,41.8,28.5,41.8c16.8,0,27.6-16.8,27.6-41.8
					C733.9,799.8,725.9,778.7,706.2,778.7z"/>
				<path class="st0" d="M1012.8,778.7c-20.8,0-28.5,21.4-28.5,41.8c0,23.9,9.9,41.8,28.5,41.8c16.8,0,27.6-16.8,27.6-41.8
					C1040.5,799.8,1032.4,778.7,1012.8,778.7z"/>
				<path class="st0" d="M589.4,711.3L547,721v30.2h-18.5V783H547v56.9c0,19.6,4,33,12,41.3c6.8,7.2,18.5,12,32.5,12
					c12.2,0,22.5-1.4,28.2-3.7l-0.3-32.7c-3.1,0.6-7.4,1.1-12.8,1.1c-13.1,0-17.1-7.7-17.1-24.4V783h31v-31.9h-31v-39.8H589.4z"/>
				<path class="st0" d="M707.5,748c-44.7,0-74.3,28.7-74.3,73.7s31.3,71.8,72,71.8c37.3,0,73.4-23.3,73.4-74.3
					C778.5,777.3,750,748,707.5,748z M706.2,862.4c-18.5,0-28.5-17.9-28.5-41.8c0-20.5,7.7-41.8,28.5-41.8c19.6,0,27.6,21,27.6,41.8
					C733.9,845.6,723.1,862.4,706.2,862.4z"/>
				<path class="st0" d="M935.6,751.1h-52.1l-28.2,41.8c-3.4,5.4-6.8,11.1-9.9,16.8h-0.6V688.3h-43.4v202.1h43.3v-43.6l11.1-13.6
					l33.6,57.2h53.3l-56.9-82.8L935.6,751.1z"/>
				<path class="st0" d="M1013.9,748c-44.7,0-74.3,28.7-74.3,73.7s31.3,71.8,72,71.8c37.3,0,73.4-23.3,73.4-74.3
					C1085.2,777.3,1056.7,748,1013.9,748z M1012.8,862.4c-18.5,0-28.5-17.9-28.5-41.8c0-20.5,7.7-41.8,28.5-41.8
					c19.6,0,27.6,21,27.6,41.8C1040.5,845.6,1029.6,862.4,1012.8,862.4z"/>
				<rect x="1108.4" y="688.3" class="st0" width="43.3" height="202.1"/>
				<rect x="1182.1" y="751.1" class="st0" width="43.3" height="139.1"/>
				<path class="st0" d="M1279.9,699.1c-12.5,11.3-17.6,29.9-17.6,46.7v5.4h-18.2V783h18.2v107.3h43.6V783h27.6v-31.9h-28V744
					c0-13.6,5.9-24.8,20.2-24.8c5.7,0,10.2,0.9,14,2l1.8-33.3c-5.9-1.8-13.4-2.9-23-2.9C1305.9,685.1,1290.8,688.8,1279.9,699.1z"/>
				<path class="st0" d="M1435.7,783v-31.9h-31v-39.8l-42.4,9.7v30.2h-18.5V783h18.5v56.9c0,19.6,4,33,12,41.3
					c6.8,7.2,18.5,12,32.5,12c12.2,0,22.5-1.4,28.2-3.7l-0.3-32.7c-3.1,0.6-7.4,1.1-12.8,1.1c-13.1,0-17.1-7.7-17.1-24.4V783H1435.7
					z"/>
			</g>
		</g>
	</g>
</g>
</svg>
